<?xml version="1.0" standalone="no"?><!DOCTYPE svg PUBLIC "-//W3C//DTD SVG 1.1//EN" "http://www.w3.org/Graphics/SVG/1.1/DTD/svg11.dtd"><svg t="1768598631093" class="icon" viewBox="0 0 1024 1024" version="1.1" xmlns="http://www.w3.org/2000/svg" p-id="43248" xmlns:xlink="http://www.w3.org/1999/xlink" width="200" height="200"><path d="M788.48 281.6H245.76c-16.896 0-30.72-13.824-30.72-30.72s13.824-30.72 30.72-30.72h542.72c16.896 0 30.72 13.824 30.72 30.72s-13.824 30.72-30.72 30.72z" fill="#A32A1F" p-id="43249"></path><path d="M384 706.56c-101.888 0-184.32-82.432-184.32-184.32s82.432-184.32 184.32-184.32c16.896 0 30.72 13.824 30.72 30.72v122.88h122.88c16.896 0 30.72 13.824 30.72 30.72 0 101.888-82.432 184.32-184.32 184.32z m-30.72-303.104c-52.736 13.312-92.16 61.44-92.16 118.784 0 67.584 55.296 122.88 122.88 122.88 57.344 0 105.472-39.424 118.784-92.16H384c-16.896 0-30.72-13.824-30.72-30.72V403.456zM793.6 476.16h-153.6c-16.896 0-30.72-13.824-30.72-30.72s13.824-30.72 30.72-30.72h153.6c16.896 0 30.72 13.824 30.72 30.72s-13.824 30.72-30.72 30.72zM793.6 629.76h-153.6c-16.896 0-30.72-13.824-30.72-30.72s13.824-30.72 30.72-30.72h153.6c16.896 0 30.72 13.824 30.72 30.72s-13.824 30.72-30.72 30.72z" fill="#E09527" p-id="43250"></path><path d="M355.84 957.44c-5.632 0-11.776-1.536-16.896-5.12-14.336-9.216-17.92-28.672-8.704-42.496l76.8-115.2c9.216-14.336 28.672-17.92 42.496-8.704 14.336 9.216 17.92 28.672 8.704 42.496l-76.8 115.2c-5.632 9.216-15.872 13.824-25.6 13.824zM683.52 957.44c-9.728 0-19.456-4.608-25.6-13.824l-76.8-115.2c-9.216-14.336-5.632-33.28 8.704-42.496 14.336-9.216 33.28-5.632 42.496 8.704l76.8 115.2c9.216 14.336 5.632 33.28-8.704 42.496-5.12 3.584-11.264 5.12-16.896 5.12z" fill="#A32A1F" p-id="43251"></path><path d="M819.2 839.68H204.8c-73.216 0-133.12-59.904-133.12-133.12V215.04c0-73.216 59.904-133.12 133.12-133.12h614.4c73.216 0 133.12 59.904 133.12 133.12v491.52c0 73.216-59.904 133.12-133.12 133.12zM204.8 143.36c-39.424 0-71.68 32.256-71.68 71.68v491.52c0 39.424 32.256 71.68 71.68 71.68h614.4c39.424 0 71.68-32.256 71.68-71.68V215.04c0-39.424-32.256-71.68-71.68-71.68H204.8z" fill="#A32A1F" p-id="43252"></path></svg>